Newsreader16pt-Bold.ufo
<glyph name="ampersand" format="2">
  <advance width="1463.872"/>
  <unicode hex="0026"/>
  <outline>
    <contour>
      <point x="654.664" y="770.488" type="line"/>
      <point x="905.904" y="873.368"/>
      <point x="983.848" y="975.52"/>
      <point x="983.848" y="1108.776" type="curve" smooth="yes"/>
      <point x="983.848" y="1249.776"/>
      <point x="872.128" y="1366.48"/>
      <point x="642.024" y="1366.48" type="curve" smooth="yes"/>
      <point x="374.28" y="1366.48"/>
      <point x="234.61599999999999" y="1223.672"/>
      <point x="234.61599999999999" y="1038.304" type="curve" smooth="yes"/>
      <point x="234.61599999999999" y="943.304"/>
      <point x="271.264" y="849.64"/>
      <point x="377.456" y="726.336" type="curve" smooth="yes"/>
      <point x="1001.496" y="0.0" type="line"/>
      <point x="1451.24" y="0.0" type="line"/>
      <point x="1451.24" y="46.072" type="line"/>
      <point x="1290.288" y="105.072" type="line"/>
      <point x="622.64" y="863.24" type="line" smooth="yes"/>
      <point x="522.216" y="977.312"/>
      <point x="487.088" y="1042.032"/>
      <point x="487.088" y="1124.032" type="curve" smooth="yes"/>
      <point x="487.088" y="1216.056"/>
      <point x="542.76" y="1264.448"/>
      <point x="625.248" y="1264.448" type="curve" smooth="yes"/>
      <point x="715.496" y="1264.448"/>
      <point x="758.296" y="1206.592"/>
      <point x="758.296" y="1095.832" type="curve" smooth="yes"/>
      <point x="758.296" y="995.088"/>
      <point x="719.976" y="912.752"/>
      <point x="602.056" y="830.008" type="curve"/>
      <point x="452.32" y="745.744" type="line"/>
      <point x="172.176" y="642.016"/>
      <point x="78.824" y="497.776"/>
      <point x="78.824" y="325.76" type="curve" smooth="yes"/>
      <point x="78.824" y="123.52"/>
      <point x="210.528" y="-26.48"/>
      <point x="494.944" y="-26.48" type="curve" smooth="yes"/>
      <point x="678.792" y="-26.48"/>
      <point x="834.512" y="37.464"/>
      <point x="969.808" y="186.36" type="curve"/>
      <point x="1013.488" y="221.192" type="line"/>
      <point x="1105.096" y="334.84"/>
      <point x="1182.688" y="481.12"/>
      <point x="1271.536" y="720.224" type="curve"/>
      <point x="1409.672" y="768.224" type="line"/>
      <point x="1409.672" y="813.0" type="line"/>
      <point x="937.552" y="813.0" type="line"/>
      <point x="937.552" y="768.224" type="line"/>
      <point x="1073.056" y="720.224" type="line"/>
      <point x="1043.496" y="533.856"/>
      <point x="1005.64" y="407.392"/>
      <point x="955.304" y="326.592" type="curve"/>
      <point x="905.384" y="273.744" type="line"/>
      <point x="828.952" y="182.288"/>
      <point x="736.576" y="143.6"/>
      <point x="632.072" y="143.6" type="curve" smooth="yes"/>
      <point x="449.81600000000003" y="143.6"/>
      <point x="347.76" y="251.392"/>
      <point x="347.76" y="425.336" type="curve" smooth="yes"/>
      <point x="347.76" y="533.048"/>
      <point x="389.08" y="619.44"/>
      <point x="489.264" y="689.76" type="curve"/>
    </contour>
  </outline>
</glyph>
<glyph name="asterisk" format="2">
  <advance width="842.152"/>
  <unicode hex="002A"/>
  <outline>
    <contour>
      <point x="583.816" y="719.592" type="line"/>
      <point x="513.408" y="963.168" type="line"/>
      <point x="763.336" y="1012.464" type="line"/>
      <point x="756.744" y="1085.016" type="line"/>
      <point x="503.112" y="1092.368" type="line"/>
      <point x="536.168" y="1345.296" type="line"/>
      <point x="466.264" y="1361.536" type="line"/>
      <point x="379.20799999999997" y="1123.256" type="line"/>
      <point x="148.984" y="1232.072" type="line"/>
      <point x="111.50399999999999" y="1170.464" type="line"/>
      <point x="310.784" y="1013.648" type="line"/>
      <point x="135.61599999999999" y="829.128" type="line"/>
      <point x="182.632" y="774.112" type="line"/>
      <point x="394.152" y="914.336" type="line"/>
      <point x="516.56" y="690.76" type="line"/>
    </contour>
  </outline>
</glyph>
<glyph name="hyphen" format="2">
  <advance width="699.904"/>
  <unicode hex="002D"/>
  <outline>
    <contour>
      <point x="107.096" y="529.512" type="line"/>
      <point x="107.096" y="356.096" type="line"/>
      <point x="592.808" y="356.096" type="line"/>
      <point x="592.808" y="529.512" type="line"/>
    </contour>
  </outline>
</glyph>
<glyph name="period" format="2">
  <advance width="487.952"/>
  <unicode hex="002E"/>
  <outline>
    <contour>
      <point x="243.976" y="305.0" type="curve" smooth="yes"/>
      <point x="147.408" y="305.0"/>
      <point x="77.616" y="232.56"/>
      <point x="77.616" y="142.584" type="curve" smooth="yes"/>
      <point x="77.616" y="51.96"/>
      <point x="147.408" y="-20.48"/>
      <point x="243.976" y="-20.48" type="curve" smooth="yes"/>
      <point x="340.544" y="-20.48"/>
      <point x="410.336" y="51.96"/>
      <point x="410.336" y="142.584" type="curve" smooth="yes"/>
      <point x="410.336" y="232.56"/>
      <point x="340.544" y="305.0"/>
    </contour>
  </outline>
</glyph>
<glyph name="D" format="2">
  <advance width="1554.616"/>
  <unicode hex="0044"/>
  <anchor x="776.92" y="1340.0" name="UCtop"/>
  <anchor x="777.624" y="0.0" name="bottom"/>
  <outline>
    <contour>
      <point x="1155.368" y="687.352" type="curve" smooth="yes"/>
      <point x="1155.368" y="287.44"/>
      <point x="959.688" y="122.512"/>
      <point x="667.816" y="122.512" type="curve" smooth="yes"/>
      <point x="374.928" y="122.512" type="line"/>
      <point x="349.656" y="0.0" type="line"/>
      <point x="700.056" y="0.0" type="line" smooth="yes"/>
      <point x="1144.056" y="0.0"/>
      <point x="1479.056" y="260.0"/>
      <point x="1479.056" y="710.0" type="curve" smooth="yes"/>
      <point x="1479.056" y="1134.0"/>
      <point x="1222.056" y="1340.0"/>
      <point x="698.056" y="1340.0" type="curve" smooth="yes"/>
      <point x="349.656" y="1340.0" type="line"/>
      <point x="374.928" y="1217.488" type="line"/>
      <point x="650.352" y="1217.488" type="line" smooth="yes"/>
      <point x="963.04" y="1217.488"/>
      <point x="1155.368" y="1053.04"/>
    </contour>
    <contour>
      <point x="68.152" y="0.0" type="line"/>
      <point x="522.232" y="0.0" type="line"/>
      <point x="522.232" y="1340.0" type="line"/>
      <point x="68.152" y="1340.0" type="line"/>
      <point x="68.152" y="1296.464" type="line"/>
      <point x="213.192" y="1237.984" type="line"/>
      <point x="213.192" y="102.016" type="line"/>
      <point x="68.152" y="43.536" type="line"/>
    </contour>
  </outline>
</glyph>
<glyph name="E" format="2">
  <advance width="1319.944"/>
  <unicode hex="0045"/>
  <anchor x="661.92" y="1340.0" name="UCtop"/>
  <anchor x="1166.392" y="0.0" name="right"/>
  <anchor x="698.4" y="0.0" name="bottom"/>
  <outline>
    <contour>
      <point x="956.576" y="965.0" type="line"/>
      <point x="858.6" y="965.0" type="line"/>
      <point x="836.6" y="764.256" type="line"/>
      <point x="362.616" y="764.256" type="line"/>
      <point x="362.616" y="641.744" type="line"/>
      <point x="836.6" y="641.744" type="line"/>
      <point x="858.6" y="441.0" type="line"/>
      <point x="956.576" y="441.0" type="line"/>
      <point x="956.576" y="703.0" type="line"/>
    </contour>
    <contour>
      <point x="1231.608" y="950.984" type="line"/>
      <point x="1151.056" y="1406.496" type="line"/>
      <point x="1120.8" y="1406.496" type="line"/>
      <point x="997.784" y="1340.0" type="line"/>
      <point x="362.616" y="1340.0" type="line"/>
      <point x="362.616" y="1217.488" type="line"/>
      <point x="1039.616" y="1217.488" type="line"/>
      <point x="957.4" y="1263.76" type="line"/>
      <point x="1174.24" y="937.448" type="line"/>
    </contour>
    <contour>
      <point x="991.6" y="77.072" type="line"/>
      <point x="1054.096" y="122.512" type="line"/>
      <point x="362.616" y="122.512" type="line"/>
      <point x="362.616" y="0.0" type="line"/>
      <point x="1021.616" y="0.0" type="line"/>
      <point x="1156.056" y="-73.256" type="line"/>
      <point x="1189.552" y="-73.256" type="line"/>
      <point x="1273.864" y="417.952" type="line"/>
      <point x="1223.144" y="430.896" type="line"/>
    </contour>
    <contour>
      <point x="68.152" y="0.0" type="line"/>
      <point x="522.232" y="0.0" type="line"/>
      <point x="522.232" y="1340.0" type="line"/>
      <point x="68.152" y="1340.0" type="line"/>
      <point x="68.152" y="1296.464" type="line"/>
      <point x="213.192" y="1237.984" type="line"/>
      <point x="213.192" y="102.016" type="line"/>
      <point x="68.152" y="43.536" type="line"/>
    </contour>
  </outline>
</glyph>
<glyph name="F" format="2">
  <advance width="1221.056"/>
  <unicode hex="0046"/>
  <anchor x="630.936" y="1340.0" name="UCtop"/>
  <anchor x="367.712" y="0.0" name="bottom"/>
  <outline>
    <contour>
      <point x="945.728" y="928.168" type="line"/>
      <point x="847.752" y="928.168" type="line"/>
      <point x="825.752" y="727.424" type="line"/>
      <point x="364.728" y="727.424" type="line"/>
      <point x="364.728" y="604.912" type="line"/>
      <point x="825.752" y="604.912" type="line"/>
      <point x="847.752" y="404.168" type="line"/>
      <point x="945.728" y="404.168" type="line"/>
      <point x="945.728" y="666.168" type="line"/>
    </contour>
    <contour>
      <point x="1097.28" y="1406.496" type="line"/>
      <point x="974.264" y="1340.0" type="line"/>
      <point x="352.056" y="1340.0" type="line"/>
      <point x="352.056" y="1217.488" type="line"/>
      <point x="1042.496" y="1217.488" type="line"/>
      <point x="932.472" y="1263.76" type="line"/>
      <point x="1149.312" y="937.448" type="line"/>
      <point x="1206.68" y="950.984" type="line"/>
      <point x="1126.128" y="1406.496" type="line"/>
    </contour>
    <contour>
      <point x="522.232" y="1340.0" type="line"/>
      <point x="68.152" y="1340.0" type="line"/>
      <point x="68.152" y="1296.464" type="line"/>
      <point x="213.192" y="1237.984" type="line"/>
      <point x="213.192" y="102.016" type="line"/>
      <point x="68.152" y="43.536" type="line"/>
      <point x="68.152" y="0.0" type="line"/>
      <point x="667.272" y="0.0" type="line"/>
      <point x="667.272" y="43.536" type="line"/>
      <point x="522.232" y="102.016" type="line"/>
    </contour>
  </outline>
</glyph>
<glyph name="J" format="2">
  <advance width="917.872"/>
  <unicode hex="004A"/>
  <anchor x="580.752" y="1340.0" name="UCtop"/>
  <anchor x="453.432" y="0.0" name="bottom"/>
  <outline>
    <contour>
      <point x="736.328" y="457.216" type="curve" smooth="yes"/>
      <point x="735.272" y="1237.984" type="line"/>
      <point x="879.96" y="1296.464" type="line"/>
      <point x="879.96" y="1340.0" type="line"/>
      <point x="271.472" y="1340.0" type="line"/>
      <point x="271.472" y="1296.464" type="line"/>
      <point x="426.23199999999997" y="1237.984" type="line"/>
      <point x="426.23199999999997" y="325.56" type="line" smooth="yes"/>
      <point x="426.23199999999997" y="161.664"/>
      <point x="376.8" y="101.328"/>
      <point x="299.296" y="101.328" type="curve" smooth="yes"/>
      <point x="231.088" y="101.328"/>
      <point x="148.536" y="214.712"/>
      <point x="97.944" y="214.712" type="curve" smooth="yes"/>
      <point x="37.352" y="214.712"/>
      <point x="0.984" y="166.344"/>
      <point x="0.984" y="113.272" type="curve" smooth="yes"/>
      <point x="0.984" y="27.184"/>
      <point x="76.112" y="-25.832"/>
      <point x="206.808" y="-25.832" type="curve" smooth="yes"/>
      <point x="501.76" y="-25.832"/>
      <point x="736.328" y="172.512"/>
    </contour>
  </outline>
</glyph>
<glyph name="N" format="2">
  <advance width="1514.256"/>
  <unicode hex="004E"/>
  <anchor x="787.144" y="1340.0" name="UCtop"/>
  <anchor x="790.664" y="0.0" name="bottom"/>
  <outline>
    <contour>
      <point x="216.488" y="102.016" type="line"/>
      <point x="71.44800000000001" y="43.536" type="line"/>
      <point x="71.44800000000001" y="0.0" type="line"/>
      <point x="495.152" y="0.0" type="line"/>
      <point x="495.152" y="43.536" type="line"/>
      <point x="334.52" y="102.016" type="line"/>
      <point x="334.52" y="1230.0" type="line"/>
      <point x="285.32" y="1194.0" type="line"/>
      <point x="1125.616" y="-6.687999999999999" type="line"/>
      <point x="1315.064" y="-6.687999999999999" type="line"/>
      <point x="1315.064" y="1237.984" type="line"/>
      <point x="1460.104" y="1296.464" type="line"/>
      <point x="1460.104" y="1340.0" type="line"/>
      <point x="1036.4" y="1340.0" type="line"/>
      <point x="1036.4" y="1296.464" type="line"/>
      <point x="1197.032" y="1237.984" type="line"/>
      <point x="1197.032" y="272.344" type="line"/>
      <point x="1278.376" y="320.928" type="line"/>
      <point x="552.168" y="1340.0" type="line"/>
      <point x="53.488" y="1340.0" type="line"/>
      <point x="53.488" y="1301.0" type="line"/>
      <point x="216.488" y="1218.744" type="line"/>
    </contour>
  </outline>
</glyph>
<glyph name="W" format="2">
  <advance width="2046.608"/>
  <unicode hex="0057"/>
  <anchor x="1113.688" y="1340.0" name="UCtop"/>
  <anchor x="1081.288" y="0.0" name="bottom"/>
  <outline>
    <contour>
      <point x="1066.608" y="1077.024" type="line"/>
      <point x="989.0" y="1065.056" type="line"/>
      <point x="1397.44" y="-7.039999999999999" type="line"/>
      <point x="1593.48" y="-7.039999999999999" type="line"/>
      <point x="1916.272" y="1237.336" type="line"/>
      <point x="2059.976" y="1296.464" type="line"/>
      <point x="2059.976" y="1340.0" type="line"/>
      <point x="1621.112" y="1340.0" type="line"/>
      <point x="1621.112" y="1296.464" type="line"/>
      <point x="1782.392" y="1237.336" type="line"/>
      <point x="1548.648" y="236.128" type="line"/>
      <point x="1633.184" y="249.152" type="line"/>
      <point x="1226.04" y="1347.04" type="line"/>
      <point x="1026.704" y="1347.04" type="line"/>
      <point x="649.544" y="263.23199999999997" type="line"/>
      <point x="719.0" y="263.23199999999997" type="line"/>
      <point x="453.688" y="1237.336" type="line"/>
      <point x="618.912" y="1296.464" type="line"/>
      <point x="618.912" y="1340.0" type="line"/>
      <point x="-22.256" y="1340.0" type="line"/>
      <point x="-22.256" y="1296.464" type="line"/>
      <point x="125.744" y="1235.336" type="line"/>
      <point x="477.44" y="-7.039999999999999" type="line"/>
      <point x="673.48" y="-7.039999999999999" type="line"/>
    </contour>
  </outline>
</glyph>
<glyph name="g" format="2">
  <advance width="1018.688"/>
  <unicode hex="0067"/>
  <anchor x="460.272" y="864.96" name="top"/>
  <anchor x="492.672" y="-530.0" name="bottom"/>
  <outline>
    <contour>
      <point x="457.344" y="-530.0" type="curve" smooth="yes"/>
      <point x="794.112" y="-530.0"/>
      <point x="986.128" y="-373.704"/>
      <point x="985.48" y="-172.952" type="curve" smooth="yes"/>
      <point x="984.832" y="0.23199999999999932"/>
      <point x="859.696" y="73.248"/>
      <point x="577.8" y="90.54400000000001" type="curve" smooth="yes"/>
      <point x="327.008" y="105.896"/>
      <point x="282.512" y="128.10399999999998"/>
      <point x="282.512" y="185.92000000000002" type="curve" smooth="yes"/>
      <point x="282.512" y="227.072"/>
      <point x="310.2" y="253.704"/>
      <point x="389.976" y="263.352" type="curve"/>
      <point x="351.368" y="300.144" type="line"/>
      <point x="181.8" y="275.032"/>
      <point x="90.50399999999999" y="202.256"/>
      <point x="87.264" y="88.28" type="curve" smooth="yes"/>
      <point x="84.024" y="-23.92"/>
      <point x="138.84" y="-118.64"/>
      <point x="427.072" y="-142.712" type="curve" smooth="yes"/>
      <point x="715.304" y="-166.784"/>
      <point x="790.344" y="-197.36"/>
      <point x="790.344" y="-278.976" type="curve" smooth="yes"/>
      <point x="790.344" y="-362.76"/>
      <point x="681.488" y="-434.08"/>
      <point x="504.56" y="-434.08" type="curve" smooth="yes"/>
      <point x="323.576" y="-434.08"/>
      <point x="234.984" y="-372.616"/>
      <point x="234.984" y="-278.464" type="curve" smooth="yes"/>
      <point x="234.984" y="-200.552"/>
      <point x="279.84000000000003" y="-140.752"/>
      <point x="505.632" y="-106.4" type="curve"/>
      <point x="504.98400000000004" y="-84.992" type="line"/>
      <point x="416.4" y="-84.992" type="line"/>
      <point x="92.71199999999999" y="-145.768"/>
      <point x="20.0" y="-213.272"/>
      <point x="20.0" y="-313.79200000000003" type="curve" smooth="yes"/>
      <point x="20.0" y="-442.112"/>
      <point x="160.576" y="-530.0"/>
    </contour>
    <contour>
      <point x="462.696" y="244.0" type="curve" smooth="yes"/>
      <point x="698.576" y="244.0"/>
      <point x="864.24" y="372.056"/>
      <point x="864.24" y="568.72" type="curve" smooth="yes"/>
      <point x="864.24" y="714.728"/>
      <point x="734.216" y="891.44"/>
      <point x="464.64" y="891.44" type="curve" smooth="yes"/>
      <point x="228.76" y="891.44"/>
      <point x="63.096000000000004" y="763.384"/>
      <point x="63.096000000000004" y="566.72" type="curve" smooth="yes"/>
      <point x="63.096000000000004" y="380.536"/>
      <point x="213.208" y="244.0"/>
    </contour>
    <contour>
      <point x="471.344" y="334.328" type="curve" smooth="yes"/>
      <point x="390.872" y="334.328"/>
      <point x="335.848" y="411.592"/>
      <point x="335.848" y="593.568" type="curve" smooth="yes"/>
      <point x="335.848" y="740.976"/>
      <point x="382.168" y="801.112"/>
      <point x="455.992" y="801.112" type="curve" smooth="yes"/>
      <point x="536.464" y="801.112"/>
      <point x="591.488" y="723.848"/>
      <point x="591.488" y="541.872" type="curve" smooth="yes"/>
      <point x="591.488" y="394.464"/>
      <point x="545.168" y="334.328"/>
    </contour>
    <contour>
      <point x="596.712" y="815.256" type="line"/>
      <point x="811.784" y="859.376"/>
      <point x="853.488" y="700.52"/>
      <point x="946.928" y="700.52" type="curve" smooth="yes"/>
      <point x="994.576" y="700.52"/>
      <point x="1042.296" y="736.576"/>
      <point x="1042.296" y="815.736" type="curve" smooth="yes"/>
      <point x="1042.296" y="874.216"/>
      <point x="1015.0" y="900.512"/>
      <point x="970.296" y="900.512" type="curve" smooth="yes"/>
      <point x="885.424" y="900.512"/>
      <point x="803.16" y="846.848"/>
      <point x="578.32" y="877.44" type="curve"/>
    </contour>
  </outline>
</glyph>
<glyph name="h" format="2">
  <advance width="1148.1680000000001"/>
  <unicode hex="0068"/>
  <anchor x="589.768" y="1360.768" name="UCtop"/>
  <anchor x="585.064" y="0.0" name="bottom"/>
  <anchor x="336.544" y="1075.888" name="center"/>
  <outline>
    <contour>
      <point x="624.032" y="40.24" type="line"/>
      <point x="624.032" y="0.0" type="line"/>
      <point x="1132.1680000000001" y="0.0" type="line"/>
      <point x="1132.1680000000001" y="40.24" type="line"/>
      <point x="1007.976" y="92.776" type="line"/>
      <point x="1007.976" y="561.96" type="line" smooth="yes"/>
      <point x="1007.976" y="785.96"/>
      <point x="924.496" y="891.44"/>
      <point x="748.592" y="891.44" type="curve" smooth="yes"/>
      <point x="620.848" y="891.44"/>
      <point x="524.272" y="853.64"/>
      <point x="355.408" y="669.24" type="curve"/>
      <point x="396.352" y="627.52" type="line"/>
      <point x="434.88800000000003" y="664.024"/>
      <point x="504.432" y="689.936"/>
      <point x="585.16" y="689.936" type="curve" smooth="yes"/>
      <point x="683.408" y="689.936"/>
      <point x="731.08" y="648.152"/>
      <point x="731.08" y="558.648" type="curve" smooth="yes"/>
      <point x="731.08" y="86.296" type="line"/>
    </contour>
    <contour>
      <point x="548.392" y="0.0" type="line"/>
      <point x="548.392" y="40.24" type="line"/>
      <point x="425.144" y="92.776" type="line"/>
      <point x="425.144" y="1211.696" type="line"/>
      <point x="442.92" y="1425.48" type="line"/>
      <point x="410.608" y="1425.48" type="line"/>
      <point x="-3.16" y="1312.32" type="line"/>
      <point x="-3.16" y="1268.344" type="line"/>
      <point x="74.84" y="1232.752"/>
      <point x="116.416" y="1203.64"/>
      <point x="148.248" y="1162.92" type="curve"/>
      <point x="148.248" y="92.776" type="line"/>
      <point x="26.056" y="40.24" type="line"/>
      <point x="26.056" y="0.0" type="line"/>
    </contour>
  </outline>
</glyph>
<glyph name="l" format="2">
  <advance width="575.856"/>
  <unicode hex="006C"/>
  <anchor x="275.4" y="1360.768" name="UCtop"/>
  <anchor x="426.2" y="1399.0" name="right"/>
  <anchor x="287.752" y="0.0" name="bottom"/>
  <anchor x="638.4159999999999" y="549.888" name="mid"/>
  <outline>
    <contour>
      <point x="426.2" y="92.776" type="line"/>
      <point x="426.2" y="1211.696" type="line"/>
      <point x="443.976" y="1425.48" type="line"/>
      <point x="411.664" y="1425.48" type="line"/>
      <point x="-2.103999999999999" y="1312.32" type="line"/>
      <point x="-2.103999999999999" y="1268.344" type="line"/>
      <point x="75.896" y="1232.752"/>
      <point x="117.47200000000001" y="1203.64"/>
      <point x="149.304" y="1162.92" type="curve"/>
      <point x="149.304" y="92.776" type="line"/>
      <point x="27.112000000000002" y="40.24" type="line"/>
      <point x="27.112000000000002" y="0.0" type="line"/>
      <point x="549.448" y="0.0" type="line"/>
      <point x="549.448" y="40.24" type="line"/>
    </contour>
  </outline>
</glyph>
<glyph name="braceleft" format="2">
  <advance width="607.632"/>
  <unicode hex="007B"/>
  <outline>
    <contour>
      <point x="32.775999999999996" y="530.76" type="line"/>
      <point x="93.968" y="527.76" type="line" smooth="yes"/>
      <point x="184.376" y="522.816"/>
      <point x="216.472" y="488.352"/>
      <point x="216.472" y="397.872" type="curve" smooth="yes"/>
      <point x="216.472" y="271.456"/>
      <point x="159.344" y="132.928"/>
      <point x="159.344" y="22.056" type="curve" smooth="yes"/>
      <point x="159.344" y="-123.312"/>
      <point x="269.48061239676827" y="-245.17126123967682"/>
      <point x="473.968" y="-267.888" type="curve" smooth="yes"/>
      <point x="563.688" y="-277.832" type="line"/>
      <point x="572.632" y="-200.632" type="line"/>
      <point x="519.352" y="-193.28" type="line" smooth="yes"/>
      <point x="411.736" y="-178.576"/>
      <point x="372.44" y="-113.776"/>
      <point x="372.44" y="-12.536000000000001" type="curve" smooth="yes"/>
      <point x="372.44" y="87.03999999999999"/>
      <point x="396.72" y="206.928"/>
      <point x="396.72" y="349.464" type="curve" smooth="yes"/>
      <point x="396.72" y="461.44"/>
      <point x="338.368" y="549.776"/>
      <point x="205.312" y="579.648" type="curve"/>
      <point x="205.312" y="564.832" type="line"/>
      <point x="338.368" y="594.704"/>
      <point x="396.72" y="683.04"/>
      <point x="396.72" y="795.016" type="curve" smooth="yes"/>
      <point x="396.72" y="937.552"/>
      <point x="372.44" y="1057.44"/>
      <point x="372.44" y="1157.016" type="curve" smooth="yes"/>
      <point x="372.44" y="1258.256"/>
      <point x="411.736" y="1323.056"/>
      <point x="519.352" y="1337.76" type="curve" smooth="yes"/>
      <point x="572.632" y="1345.112" type="line"/>
      <point x="563.688" y="1422.312" type="line"/>
      <point x="473.968" y="1412.368" type="line" smooth="yes"/>
      <point x="269.4808271304455" y="1389.6512827130446"/>
      <point x="159.344" y="1267.792"/>
      <point x="159.344" y="1122.424" type="curve" smooth="yes"/>
      <point x="159.344" y="1011.552"/>
      <point x="216.472" y="873.024"/>
      <point x="216.472" y="746.608" type="curve" smooth="yes"/>
      <point x="216.472" y="656.128"/>
      <point x="184.376" y="621.664"/>
      <point x="93.968" y="616.72" type="curve" smooth="yes"/>
      <point x="32.775999999999996" y="613.72" type="line"/>
    </contour>
  </outline>
</glyph>
<glyph name="braceright" format="2">
  <advance width="607.632"/>
  <unicode hex="007D"/>
  <outline>
    <contour>
      <point x="574.856" y="613.72" type="line"/>
      <point x="513.664" y="616.72" type="line" smooth="yes"/>
      <point x="423.256" y="621.664"/>
      <point x="391.16" y="656.128"/>
      <point x="391.16" y="746.608" type="curve" smooth="yes"/>
      <point x="391.16" y="873.024"/>
      <point x="448.288" y="1011.552"/>
      <point x="448.288" y="1122.424" type="curve" smooth="yes"/>
      <point x="448.288" y="1267.792"/>
      <point x="338.104" y="1389.48"/>
      <point x="133.664" y="1412.368" type="curve" smooth="yes"/>
      <point x="43.944" y="1422.312" type="line"/>
      <point x="35.0" y="1345.112" type="line"/>
      <point x="88.28" y="1337.76" type="line" smooth="yes"/>
      <point x="195.89600000000002" y="1323.056"/>
      <point x="235.192" y="1258.256"/>
      <point x="235.192" y="1157.016" type="curve" smooth="yes"/>
      <point x="235.192" y="1057.44"/>
      <point x="210.912" y="937.552"/>
      <point x="210.912" y="795.016" type="curve" smooth="yes"/>
      <point x="210.912" y="683.04"/>
      <point x="269.264" y="594.704"/>
      <point x="402.32" y="564.832" type="curve"/>
      <point x="402.32" y="579.648" type="line"/>
      <point x="269.264" y="549.776"/>
      <point x="210.912" y="461.44"/>
      <point x="210.912" y="349.464" type="curve" smooth="yes"/>
      <point x="210.912" y="206.928"/>
      <point x="235.192" y="87.03999999999999"/>
      <point x="235.192" y="-12.536000000000001" type="curve" smooth="yes"/>
      <point x="235.192" y="-113.776"/>
      <point x="195.89600000000002" y="-178.576"/>
      <point x="88.28" y="-193.28" type="curve" smooth="yes"/>
      <point x="35.0" y="-200.632" type="line"/>
      <point x="43.944" y="-277.832" type="line"/>
      <point x="133.664" y="-267.888" type="line" smooth="yes"/>
      <point x="338.104" y="-245.0"/>
      <point x="448.288" y="-123.312"/>
      <point x="448.288" y="22.056" type="curve" smooth="yes"/>
      <point x="448.288" y="132.928"/>
      <point x="391.16" y="271.456"/>
      <point x="391.16" y="397.872" type="curve" smooth="yes"/>
      <point x="391.16" y="488.352"/>
      <point x="423.256" y="522.816"/>
      <point x="513.664" y="527.76" type="curve" smooth="yes"/>
      <point x="574.856" y="530.76" type="line"/>
    </contour>
  </outline>
</glyph>
<glyph name="asciitilde" format="2">
  <advance width="1000.0"/>
  <unicode hex="007E"/>
  <outline>
    <contour>
      <point x="121.912" y="315.56" type="curve"/>
      <point x="247.496" y="315.56" type="line"/>
      <point x="251.2" y="410.928"/>
      <point x="277.608" y="441.56"/>
      <point x="343.352" y="441.56" type="curve" smooth="yes"/>
      <point x="441.392" y="441.56"/>
      <point x="508.352" y="308.56"/>
      <point x="662.352" y="308.56" type="curve" smooth="yes"/>
      <point x="797.104" y="308.56"/>
      <point x="878.088" y="376.888"/>
      <point x="878.792" y="556.44" type="curve"/>
      <point x="753.208" y="556.44" type="line"/>
      <point x="749.504" y="461.072"/>
      <point x="723.096" y="430.44"/>
      <point x="657.352" y="430.44" type="curve" smooth="yes"/>
      <point x="559.312" y="430.44"/>
      <point x="492.352" y="563.44"/>
      <point x="338.352" y="563.44" type="curve" smooth="yes"/>
      <point x="203.6" y="563.44"/>
      <point x="122.616" y="495.112"/>
    </contour>
  </outline>
</glyph>
<glyph name="copyright" format="2">
  <advance width="1612.224"/>
  <unicode hex="00A9"/>
  <outline>
    <contour>
      <point x="804.816" y="1366.48" type="curve" smooth="yes"/>
      <point x="395.576" y="1366.48"/>
      <point x="102.632" y="1077.24"/>
      <point x="102.632" y="669.352" type="curve" smooth="yes"/>
      <point x="102.632" y="261.464"/>
      <point x="395.576" y="-26.48"/>
      <point x="804.816" y="-26.48" type="curve" smooth="yes"/>
      <point x="1215.352" y="-26.48"/>
      <point x="1509.592" y="261.464"/>
      <point x="1509.592" y="669.352" type="curve" smooth="yes"/>
      <point x="1509.592" y="1077.24"/>
      <point x="1215.352" y="1366.48"/>
    </contour>
    <contour>
      <point x="804.816" y="1267.168" type="curve" smooth="yes"/>
      <point x="1147.872" y="1267.168"/>
      <point x="1396.928" y="1020.76"/>
      <point x="1396.928" y="669.352" type="curve" smooth="yes"/>
      <point x="1396.928" y="318.592"/>
      <point x="1147.872" y="72.184"/>
      <point x="804.816" y="72.184" type="curve" smooth="yes"/>
      <point x="463.704" y="72.184"/>
      <point x="214.648" y="318.592"/>
      <point x="214.648" y="669.352" type="curve" smooth="yes"/>
      <point x="214.648" y="1020.76"/>
      <point x="463.704" y="1267.168"/>
    </contour>
    <contour>
      <point x="908.344" y="365.464" type="curve"/>
      <point x="778.168" y="365.464"/>
      <point x="676.736" y="498.944"/>
      <point x="676.736" y="713.016" type="curve" smooth="yes"/>
      <point x="676.736" y="901.4"/>
      <point x="748.76" y="984.888"/>
      <point x="870.832" y="984.888" type="curve" smooth="yes"/>
      <point x="917.0" y="984.888"/>
      <point x="959.944" y="972.0"/>
      <point x="1005.04" y="940.76" type="curve"/>
      <point x="950.52" y="998.536" type="line"/>
      <point x="1077.48" y="783.392" type="line"/>
      <point x="1121.312" y="794.984" type="line"/>
      <point x="1081.312" y="1091.704" type="line"/>
      <point x="1053.816" y="1091.704" type="line"/>
      <point x="973.0" y="1031.928" type="line"/>
      <point x="1032.608" y="1043.408" type="line"/>
      <point x="964.72" y="1059.352"/>
      <point x="926.368" y="1065.0"/>
      <point x="875.184" y="1065.0" type="curve" smooth="yes"/>
      <point x="596.184" y="1065.0"/>
      <point x="426.408" y="908.536"/>
      <point x="426.408" y="677.424" type="curve" smooth="yes"/>
      <point x="426.408" y="426.28"/>
      <point x="597.352" y="285.352"/>
      <point x="865.552" y="285.352" type="curve" smooth="yes"/>
      <point x="951.272" y="285.352"/>
      <point x="1018.48" y="295.408"/>
      <point x="1091.664" y="314.872" type="curve"/>
      <point x="1139.568" y="535.576" type="line"/>
      <point x="1095.68" y="535.576" type="line"/>
      <point x="956.632" y="337.816" type="line"/>
      <point x="1029.52" y="396.76" type="line"/>
      <point x="987.016" y="373.352"/>
      <point x="951.68" y="365.464"/>
    </contour>
  </outline>
</glyph>
<glyph name="uni00B3" format="2">
  <advance width="683.952"/>
  <unicode hex="00B3"/>
  <outline>
    <contour>
      <point x="250.232" y="574.112" type="curve" smooth="yes"/>
      <point x="497.096" y="574.112"/>
      <point x="642.448" y="703.888"/>
      <point x="642.448" y="858.592" type="curve" smooth="yes"/>
      <point x="642.448" y="979.888"/>
      <point x="545.56" y="1067.864"/>
      <point x="358.104" y="1029.424" type="curve"/>
      <point x="345.976" y="1024.72" type="line"/>
      <point x="468.288" y="1034.464"/>
      <point x="561.488" y="1107.944"/>
      <point x="561.488" y="1207.776" type="curve" smooth="yes"/>
      <point x="561.488" y="1296.832"/>
      <point x="493.192" y="1362.424"/>
      <point x="358.288" y="1362.424" type="curve" smooth="yes"/>
      <point x="194.648" y="1362.424"/>
      <point x="112.944" y="1278.536"/>
      <point x="68.744" y="1123.856" type="curve"/>
      <point x="130.832" y="1105.32" type="line"/>
      <point x="156.776" y="1182.36"/>
      <point x="207.536" y="1224.248"/>
      <point x="281.648" y="1224.248" type="curve" smooth="yes"/>
      <point x="341.576" y="1224.248"/>
      <point x="374.096" y="1186.784"/>
      <point x="374.096" y="1137.856" type="curve" smooth="yes"/>
      <point x="374.096" y="1072.8"/>
      <point x="339.816" y="1029.872"/>
      <point x="195.072" y="985.464" type="curve"/>
      <point x="213.96" y="921.856" type="line"/>
      <point x="250.72" y="931.208" type="line" smooth="yes"/>
      <point x="369.776" y="961.912"/>
      <point x="432.928" y="920.28"/>
      <point x="432.928" y="813.408" type="curve" smooth="yes"/>
      <point x="432.928" y="707.072"/>
      <point x="372.424" y="656.424"/>
      <point x="301.72" y="656.424" type="curve" smooth="yes"/>
      <point x="206.48" y="656.424"/>
      <point x="186.888" y="750.512"/>
      <point x="111.52" y="750.512" type="curve" smooth="yes"/>
      <point x="68.50399999999999" y="750.512"/>
      <point x="40.263999999999996" y="722.032"/>
      <point x="40.263999999999996" y="682.2" type="curve" smooth="yes"/>
      <point x="40.263999999999996" y="628.48"/>
      <point x="91.984" y="574.112"/>
    </contour>
  </outline>
</glyph>
<glyph name="paragraph" format="2">
  <advance width="1266.256"/>
  <unicode hex="00B6"/>
  <outline>
    <contour>
      <point x="696.64" y="1340.0" type="line"/>
      <point x="458.272" y="1340.0" type="line" smooth="yes"/>
      <point x="166.888" y="1340.0"/>
      <point x="50.464" y="1169.688"/>
      <point x="50.464" y="975.432" type="curve" smooth="yes"/>
      <point x="50.464" y="774.176"/>
      <point x="172.536" y="625.16"/>
      <point x="458.272" y="625.16" type="curve" smooth="yes"/>
      <point x="696.64" y="625.16" type="line"/>
    </contour>
    <contour>
      <point x="753.04" y="-251.76" type="line"/>
      <point x="753.04" y="1229.8" type="line"/>
      <point x="930.52" y="1229.8" type="line"/>
      <point x="930.52" y="1340.0" type="line"/>
      <point x="631.12" y="1340.0" type="line"/>
      <point x="631.12" y="-251.76" type="line"/>
    </contour>
    <contour>
      <point x="1028.44" y="-251.76" type="line"/>
      <point x="1028.44" y="1238.8" type="line"/>
      <point x="1199.4" y="1292.336" type="line"/>
      <point x="1199.4" y="1340.0" type="line"/>
      <point x="906.52" y="1340.0" type="line"/>
      <point x="906.52" y="-251.76" type="line"/>
    </contour>
  </outline>
</glyph>
<glyph name="Thorn" format="2">
  <advance width="1327.232"/>
  <unicode hex="00DE"/>
  <outline>
    <contour>
      <point x="961.648" y="690.704" type="curve" smooth="yes"/>
      <point x="961.648" y="514.72"/>
      <point x="851.384" y="421.256"/>
      <point x="693.288" y="421.256" type="curve" smooth="yes"/>
      <point x="322.04" y="421.256" type="line"/>
      <point x="326.616" y="298.744" type="line"/>
      <point x="748.64" y="298.744" type="line" smooth="yes"/>
      <point x="1112.248" y="298.744"/>
      <point x="1268.376" y="479.336"/>
      <point x="1268.376" y="697.52" type="curve" smooth="yes"/>
      <point x="1268.376" y="911.296"/>
      <point x="1120.544" y="1082.96"/>
      <point x="748.64" y="1082.96" type="curve" smooth="yes"/>
      <point x="326.616" y="1082.96" type="line"/>
      <point x="322.04" y="960.448" type="line"/>
      <point x="638.016" y="960.448" type="line" smooth="yes"/>
      <point x="871.848" y="960.448"/>
      <point x="961.648" y="862.336"/>
    </contour>
    <contour>
      <point x="667.272" y="43.536" type="line"/>
      <point x="522.232" y="102.016" type="line"/>
      <point x="522.232" y="1237.984" type="line"/>
      <point x="667.272" y="1296.464" type="line"/>
      <point x="667.272" y="1340.0" type="line"/>
      <point x="68.152" y="1340.0" type="line"/>
      <point x="68.152" y="1296.464" type="line"/>
      <point x="213.192" y="1237.984" type="line"/>
      <point x="213.192" y="102.016" type="line"/>
      <point x="68.152" y="43.536" type="line"/>
      <point x="68.152" y="0.0" type="line"/>
      <point x="667.272" y="0.0" type="line"/>
    </contour>
  </outline>
</glyph>
<glyph name="Dcroat" format="2">
  <advance width="1557.912"/>
  <unicode hex="0110"/>
  <outline>
    <contour>
      <point x="71.44800000000001" y="621.04" type="line"/>
      <point x="796.744" y="621.04" type="line"/>
      <point x="796.744" y="738.368" type="line"/>
      <point x="71.44800000000001" y="738.368" type="line"/>
    </contour>
    <contour>
      <point x="1158.664" y="687.352" type="curve" smooth="yes"/>
      <point x="1158.664" y="287.44"/>
      <point x="962.984" y="122.512"/>
      <point x="671.112" y="122.512" type="curve" smooth="yes"/>
      <point x="378.224" y="122.512" type="line"/>
      <point x="352.952" y="0.0" type="line"/>
      <point x="703.352" y="0.0" type="line" smooth="yes"/>
      <point x="1147.352" y="0.0"/>
      <point x="1482.352" y="260.0"/>
      <point x="1482.352" y="710.0" type="curve" smooth="yes"/>
      <point x="1482.352" y="1134.0"/>
      <point x="1225.352" y="1340.0"/>
      <point x="701.352" y="1340.0" type="curve" smooth="yes"/>
      <point x="352.952" y="1340.0" type="line"/>
      <point x="378.224" y="1217.488" type="line"/>
      <point x="653.648" y="1217.488" type="line" smooth="yes"/>
      <point x="966.336" y="1217.488"/>
      <point x="1158.664" y="1053.04"/>
    </contour>
    <contour>
      <point x="71.44800000000001" y="0.0" type="line"/>
      <point x="525.528" y="0.0" type="line"/>
      <point x="525.528" y="1340.0" type="line"/>
      <point x="71.44800000000001" y="1340.0" type="line"/>
      <point x="71.44800000000001" y="1296.464" type="line"/>
      <point x="216.488" y="1237.984" type="line"/>
      <point x="216.488" y="102.016" type="line"/>
      <point x="71.44800000000001" y="43.536" type="line"/>
    </contour>
  </outline>
</glyph>
<glyph name="Uhorn" format="2">
  <advance width="1565.56"/>
  <unicode hex="01AF"/>
  <anchor x="832.376" y="1340.0" name="UCtop"/>
  <anchor x="832.376" y="0.0" name="bottom"/>
  <outline>
    <contour>
      <point x="1493.104" y="1404.296" type="curve" smooth="yes"/>
      <point x="1493.104" y="1361.112"/>
      <point x="1470.4" y="1340.0"/>
      <point x="1326.8" y="1340.0" type="curve" smooth="yes"/>
      <point x="1085.08" y="1340.0" type="line"/>
      <point x="1085.08" y="1296.464" type="line"/>
      <point x="1241.136" y="1237.984" type="line"/>
      <point x="1241.136" y="533.064" type="line" smooth="yes"/>
      <point x="1241.136" y="293.84000000000003"/>
      <point x="1101.672" y="168.096"/>
      <point x="860.704" y="168.096" type="curve" smooth="yes"/>
      <point x="614.272" y="168.096"/>
      <point x="491.23199999999997" y="294.192"/>
      <point x="491.23199999999997" y="545.016" type="curve" smooth="yes"/>
      <point x="491.23199999999997" y="1237.984" type="line"/>
      <point x="636.272" y="1296.464" type="line"/>
      <point x="636.272" y="1340.0" type="line"/>
      <point x="37.152" y="1340.0" type="line"/>
      <point x="37.152" y="1296.464" type="line"/>
      <point x="182.192" y="1237.984" type="line"/>
      <point x="182.192" y="545.592" type="line" smooth="yes"/>
      <point x="182.192" y="163.28"/>
      <point x="392.744" y="-26.48"/>
      <point x="790.4" y="-26.48" type="curve" smooth="yes"/>
      <point x="1158.152" y="-26.48"/>
      <point x="1359.1680000000001" y="168.112"/>
      <point x="1359.1680000000001" y="540.104" type="curve" smooth="yes"/>
      <point x="1359.1680000000001" y="1240.096" type="line"/>
      <point x="1594.208" y="1248.392"/>
      <point x="1692.704" y="1333.28"/>
      <point x="1692.704" y="1472.96" type="curve" smooth="yes"/>
      <point x="1692.704" y="1556.864"/>
      <point x="1646.28" y="1610.288"/>
      <point x="1570.024" y="1610.288" type="curve" smooth="yes"/>
      <point x="1512.768" y="1610.288"/>
      <point x="1461.976" y="1575.456"/>
      <point x="1461.328" y="1532.272" type="curve" smooth="yes"/>
      <point x="1460.68" y="1505.064"/>
      <point x="1493.104" y="1463.072"/>
    </contour>
  </outline>
</glyph>
<glyph name="uhorn" format="2">
  <advance width="1170.656"/>
  <unicode hex="01B0"/>
  <anchor x="530.4" y="864.96" name="top"/>
  <anchor x="555.5840000000001" y="0.0" name="bottom"/>
  <outline>
    <contour>
      <point x="419.976" y="296.904" type="curve" smooth="yes"/>
      <point x="419.976" y="748.872" type="line"/>
      <point x="432.86400000000003" y="883.2" type="line"/>
      <point x="17.28" y="849.76" type="line"/>
      <point x="17.28" y="799.744" type="line"/>
      <point x="143.728" y="736.504" type="line"/>
      <point x="143.728" y="290.536" type="line" smooth="yes"/>
      <point x="143.728" y="78.112"/>
      <point x="224.208" y="-26.48"/>
      <point x="395.872" y="-26.48" type="curve" smooth="yes"/>
      <point x="518.152" y="-26.48"/>
      <point x="607.152" y="9.264"/>
      <point x="769.664" y="186.608" type="curve"/>
      <point x="729.72" y="232.38400000000001" type="line"/>
      <point x="693.776" y="197.528"/>
      <point x="627.5840000000001" y="175.376"/>
      <point x="555.08" y="175.376" type="curve" smooth="yes"/>
      <point x="456.144" y="175.376"/>
      <point x="419.976" y="206.008"/>
    </contour>
    <contour>
      <point x="1047.288" y="938.976" type="curve" smooth="yes"/>
      <point x="1047.288" y="903.68"/>
      <point x="1031.064" y="882.624"/>
      <point x="911.4639999999999" y="875.44" type="curve" smooth="yes"/>
      <point x="584.44" y="849.76" type="line"/>
      <point x="584.44" y="799.744" type="line"/>
      <point x="692.096" y="742.984" type="line"/>
      <point x="692.096" y="183.496" type="line"/>
      <point x="714.224" y="-18.592" type="line"/>
      <point x="746.536" y="-18.592" type="line"/>
      <point x="1098.936" y="50.944" type="line"/>
      <point x="1098.936" y="89.368" type="line"/>
      <point x="1046.568" y="107.032"/>
      <point x="1000.472" y="134.088"/>
      <point x="969.344" y="167.864" type="curve"/>
      <point x="969.344" y="742.392" type="line"/>
      <point x="975.288" y="787.872" type="line"/>
      <point x="1161.152" y="804.576"/>
      <point x="1244.944" y="868.52"/>
      <point x="1244.944" y="997.92" type="curve" smooth="yes"/>
      <point x="1244.944" y="1081.824"/>
      <point x="1198.52" y="1135.248"/>
      <point x="1122.2640000000001" y="1135.248" type="curve" smooth="yes"/>
      <point x="1065.008" y="1135.248"/>
      <point x="1014.216" y="1100.416"/>
      <point x="1013.568" y="1057.232" type="curve" smooth="yes"/>
      <point x="1012.92" y="1030.024"/>
      <point x="1047.288" y="997.752"/>
    </contour>
  </outline>
</glyph>
<glyph name="uni030A" format="2">
  <unicode hex="030A"/>
  <anchor x="0.0" y="864.96" name="_top"/>
  <anchor x="0.0" y="1340.0" name="top"/>
  <outline>
    <contour>
      <point x="0.0" y="1359.72" type="curve" smooth="yes"/>
      <point x="-108.48" y="1359.72"/>
      <point x="-188.016" y="1282.48"/>
      <point x="-188.016" y="1174.352" type="curve" smooth="yes"/>
      <point x="-188.016" y="1067.52"/>
      <point x="-108.48" y="988.984"/>
      <point x="0.0" y="988.984" type="curve" smooth="yes"/>
      <point x="108.48" y="988.984"/>
      <point x="188.016" y="1067.52"/>
      <point x="188.016" y="1174.352" type="curve" smooth="yes"/>
      <point x="188.016" y="1282.48"/>
      <point x="108.48" y="1359.72"/>
    </contour>
    <contour>
      <point x="0.0" y="1057.112" type="curve" smooth="yes"/>
      <point x="-66.944" y="1057.112"/>
      <point x="-115.888" y="1106.056"/>
      <point x="-115.888" y="1174.352" type="curve" smooth="yes"/>
      <point x="-115.888" y="1245.24"/>
      <point x="-66.944" y="1294.184"/>
      <point x="0.0" y="1294.184" type="curve" smooth="yes"/>
      <point x="66.944" y="1294.184"/>
      <point x="115.888" y="1245.24"/>
      <point x="115.888" y="1174.352" type="curve" smooth="yes"/>
      <point x="115.888" y="1106.056"/>
      <point x="66.944" y="1057.112"/>
    </contour>
  </outline>
</glyph>
<glyph name="dagger" format="2">
  <advance width="684.56"/>
  <unicode hex="2020"/>
  <outline>
    <contour>
      <point x="341.632" y="1196.312" type="line"/>
      <point x="92.28" y="1243.2" type="line"/>
      <point x="92.28" y="1077.04" type="line"/>
      <point x="341.632" y="1125.224" type="line"/>
      <point x="592.28" y="1077.04" type="line"/>
      <point x="592.28" y="1243.2" type="line"/>
    </contour>
    <contour>
      <point x="304.264" y="1159.944" type="line"/>
      <point x="255.376" y="896.848" type="line"/>
      <point x="322.912" y="651.0" type="line"/>
      <point x="361.0" y="651.0" type="line"/>
      <point x="429.184" y="896.848" type="line"/>
      <point x="376.704" y="1159.944" type="line"/>
      <point x="439.552" y="1399.0" type="line"/>
      <point x="245.00799999999998" y="1399.0" type="line"/>
    </contour>
  </outline>
</glyph>
<glyph name="daggerdbl" format="2">
  <advance width="723.376"/>
  <unicode hex="2021"/>
  <outline>
    <contour>
      <point x="361.04" y="1196.312" type="line"/>
      <point x="111.688" y="1243.2" type="line"/>
      <point x="111.688" y="1077.04" type="line"/>
      <point x="361.04" y="1125.224" type="line"/>
      <point x="611.688" y="1077.04" type="line"/>
      <point x="611.688" y="1243.2" type="line"/>
    </contour>
    <contour>
      <point x="437.352" y="1025.0" type="line"/>
      <point x="396.112" y="1159.944" type="line"/>
      <point x="458.96" y="1399.0" type="line"/>
      <point x="264.416" y="1399.0" type="line"/>
      <point x="323.672" y="1159.944" type="line"/>
      <point x="286.024" y="1025.0" type="line"/>
      <point x="323.672" y="890.056" type="line"/>
      <point x="264.416" y="651.0" type="line"/>
      <point x="458.96" y="651.0" type="line"/>
      <point x="396.112" y="890.056" type="line"/>
    </contour>
    <contour>
      <point x="361.04" y="853.688" type="line"/>
      <point x="611.688" y="806.8" type="line"/>
      <point x="611.688" y="972.96" type="line"/>
      <point x="361.04" y="924.776" type="line"/>
      <point x="111.688" y="972.96" type="line"/>
      <point x="111.688" y="806.8" type="line"/>
    </contour>
  </outline>
</glyph>
<glyph name="bullet" format="2">
  <advance width="814.704"/>
  <unicode hex="2022"/>
  <outline>
    <contour>
      <point x="407.352" y="700.032" type="curve" smooth="yes"/>
      <point x="254.28" y="700.032"/>
      <point x="143.152" y="584.904"/>
      <point x="143.152" y="442.48" type="curve" smooth="yes"/>
      <point x="143.152" y="300.056"/>
      <point x="254.28" y="184.928"/>
      <point x="407.352" y="184.928" type="curve" smooth="yes"/>
      <point x="560.424" y="184.928"/>
      <point x="671.552" y="300.056"/>
      <point x="671.552" y="442.48" type="curve" smooth="yes"/>
      <point x="671.552" y="584.904"/>
      <point x="560.424" y="700.032"/>
    </contour>
  </outline>
</glyph>
<glyph name="trademark" format="2">
  <advance width="1644.664"/>
  <unicode hex="2122"/>
  <outline>
    <contour>
      <point x="289.52" y="1319.832" type="line"/>
      <point x="289.52" y="857.016" type="line"/>
      <point x="220.8" y="832.72" type="line"/>
      <point x="220.8" y="806.0" type="line"/>
      <point x="513.008" y="806.0" type="line"/>
      <point x="513.008" y="832.72" type="line"/>
      <point x="444.936" y="857.016" type="line"/>
      <point x="444.936" y="1319.832" type="line"/>
    </contour>
    <contour>
      <point x="1479.792" y="859.312" type="line"/>
      <point x="1444.384" y="1292.224" type="line"/>
      <point x="1514.104" y="1312.28" type="line"/>
      <point x="1514.104" y="1340.0" type="line"/>
      <point x="1247.92" y="1340.0" type="line"/>
      <point x="1107.856" y="941.36" type="line"/>
      <point x="1144.76" y="941.36" type="line"/>
      <point x="997.752" y="1340.0" type="line"/>
      <point x="728.048" y="1340.0" type="line"/>
      <point x="728.048" y="1311.632" type="line"/>
      <point x="804.064" y="1282.744" type="line"/>
      <point x="776.304" y="852.536" type="line"/>
      <point x="706.824" y="832.72" type="line"/>
      <point x="706.824" y="806.0" type="line"/>
      <point x="906.096" y="806.0" type="line"/>
      <point x="906.096" y="832.72" type="line"/>
      <point x="844.096" y="852.536" type="line"/>
      <point x="868.448" y="1280.648" type="line"/>
      <point x="853.8" y="1279.296" type="line"/>
      <point x="1031.768" y="804.944" type="line"/>
      <point x="1129.1680000000001" y="804.944" type="line"/>
      <point x="1293.304" y="1271.576" type="line"/>
      <point x="1286.784" y="1272.928" type="line"/>
      <point x="1318.136" y="858.256" type="line"/>
      <point x="1252.896" y="832.72" type="line"/>
      <point x="1252.896" y="806.0" type="line"/>
      <point x="1552.104" y="806.0" type="line"/>
      <point x="1552.104" y="832.72" type="line"/>
    </contour>
    <contour>
      <point x="612.696" y="1280.04" type="line"/>
      <point x="550.088" y="1309.24" type="line"/>
      <point x="635.4" y="1136.784" type="line"/>
      <point x="666.528" y="1141.728" type="line"/>
      <point x="642.176" y="1370.592" type="line"/>
      <point x="624.288" y="1370.592" type="line"/>
      <point x="548.92" y="1329.056" type="line"/>
      <point x="603.936" y="1340.0" type="line"/>
      <point x="130.928" y="1340.0" type="line"/>
      <point x="185.944" y="1329.056" type="line"/>
      <point x="110.576" y="1370.592" type="line"/>
      <point x="93.336" y="1370.592" type="line"/>
      <point x="68.336" y="1141.728" type="line"/>
      <point x="100.112" y="1136.784" type="line"/>
      <point x="184.776" y="1309.24" type="line"/>
      <point x="121.52" y="1280.04" type="line"/>
    </contour>
  </outline>
</glyph>
<glyph name="notequal" format="2">
  <advance width="1000.0"/>
  <unicode hex="2260"/>
  <outline>
    <contour>
      <point x="123.56" y="0.0" type="line"/>
      <point x="264.048" y="0.0" type="line"/>
      <point x="876.44" y="852.0" type="line"/>
      <point x="735.952" y="852.0" type="line"/>
    </contour>
    <contour>
      <point x="123.56" y="667.44" type="line"/>
      <point x="123.56" y="544.56" type="line"/>
      <point x="876.44" y="544.56" type="line"/>
      <point x="876.44" y="667.44" type="line"/>
    </contour>
    <contour>
      <point x="123.56" y="327.44" type="line"/>
      <point x="123.56" y="204.56" type="line"/>
      <point x="876.44" y="204.56" type="line"/>
      <point x="876.44" y="327.44" type="line"/>
    </contour>
  </outline>
</glyph>
<glyph name="greaterequal" format="2">
  <advance width="1000.0"/>
  <unicode hex="2265"/>
  <outline>
    <contour>
      <point x="952.352" y="122.88" type="line"/>
      <point x="52.352" y="122.88" type="line"/>
      <point x="52.352" y="0.0" type="line"/>
      <point x="952.352" y="0.0" type="line"/>
    </contour>
    <contour>
      <point x="952.352" y="494.392" type="line"/>
      <point x="952.352" y="598.608" type="line"/>
      <point x="52.352" y="893.296" type="line"/>
      <point x="52.352" y="762.824" type="line"/>
      <point x="859.352" y="511.432" type="line"/>
      <point x="859.352" y="581.568" type="line"/>
      <point x="52.352" y="330.176" type="line"/>
      <point x="52.352" y="199.704" type="line"/>
    </contour>
  </outline>
</glyph>
<glyph name="dong.lf" format="2">
  <advance width="1248.864"/>
  <outline>
    <contour>
      <point x="1162.64" y="-235.688" type="line"/>
      <point x="86.616" y="-235.688" type="line"/>
      <point x="86.616" y="-337.016" type="line"/>
      <point x="1162.64" y="-337.016" type="line"/>
    </contour>
    <contour>
      <point x="720.264" y="595.624" type="curve" smooth="yes"/>
      <point x="720.264" y="133.888" type="line"/>
      <point x="748.52" y="-25.072000000000003" type="line"/>
      <point x="780.48" y="-25.072000000000003" type="line"/>
      <point x="1122.88" y="49.888" type="line"/>
      <point x="1122.88" y="87.96000000000001" type="line"/>
      <point x="1071.216" y="105.624"/>
      <point x="1025.824" y="131.976"/>
      <point x="995.048" y="165.4" type="curve"/>
      <point x="995.048" y="1192.688" type="line"/>
      <point x="1011.824" y="1404.712" type="line"/>
      <point x="980.216" y="1404.712" type="line"/>
      <point x="579.768" y="1295.072" type="line"/>
      <point x="579.768" y="1252.152" type="line"/>
      <point x="649.672" y="1219.728"/>
      <point x="689.488" y="1194.136"/>
      <point x="720.264" y="1154.472" type="curve"/>
      <point x="720.264" y="783.4639999999999" type="line"/>
      <point x="888.744" y="802.824" type="line"/>
      <point x="766.488" y="856.768"/>
      <point x="681.248" y="878.416"/>
      <point x="577.5840000000001" y="878.416" type="curve" smooth="yes"/>
      <point x="327.864" y="878.416"/>
      <point x="82.872" y="706.304"/>
      <point x="82.872" y="382.496" type="curve" smooth="yes"/>
      <point x="82.872" y="141.24"/>
      <point x="210.872" y="-26.48"/>
      <point x="453.816" y="-26.48" type="curve" smooth="yes"/>
      <point x="536.744" y="-26.48"/>
      <point x="612.944" y="0.352"/>
      <point x="766.784" y="97.096" type="curve"/>
      <point x="766.784" y="185.832" type="line"/>
      <point x="707.352" y="143.808"/>
      <point x="638.736" y="126.768"/>
      <point x="578.024" y="126.768" type="curve" smooth="yes"/>
      <point x="451.72" y="126.768"/>
      <point x="369.93600000000004" y="230.808"/>
      <point x="369.93600000000004" y="448.288" type="curve" smooth="yes"/>
      <point x="369.93600000000004" y="677.728"/>
      <point x="442.904" y="778.032"/>
      <point x="565.008" y="778.032" type="curve" smooth="yes"/>
      <point x="667.24" y="778.032"/>
      <point x="720.264" y="700.328"/>
    </contour>
    <contour>
      <point x="428.928" y="1006.96" type="line"/>
      <point x="1161.344" y="1006.96" type="line"/>
      <point x="1161.344" y="1118.656" type="line"/>
      <point x="428.928" y="1118.656" type="line"/>
    </contour>
  </outline>
</glyph>
<glyph name="four.lf" format="2">
  <advance width="1190.776"/>
  <outline>
    <contour>
      <point x="868.104" y="1347.04" type="line"/>
      <point x="646.32" y="1347.04" type="line"/>
      <point x="14.648" y="496.968" type="line"/>
      <point x="14.648" y="375.248" type="line"/>
      <point x="1117.312" y="375.248" type="line"/>
      <point x="1170.312" y="609.824" type="line"/>
      <point x="985.312" y="581.824" type="line"/>
      <point x="129.648" y="581.824" type="line"/>
      <point x="156.832" y="520.608" type="line"/>
      <point x="676.856" y="1192.64" type="line"/>
      <point x="568.36" y="1146.456" type="line"/>
      <point x="568.36" y="99.016" type="line"/>
      <point x="384.4" y="41.536" type="line"/>
      <point x="384.4" y="0.0" type="line"/>
      <point x="1039.064" y="0.0" type="line"/>
      <point x="1039.064" y="41.536" type="line"/>
      <point x="868.104" y="99.016" type="line"/>
    </contour>
  </outline>
</glyph>
<glyph name="franc.lf" format="2">
  <advance width="1242.808"/>
  <outline>
    <contour>
      <point x="1112.696" y="1406.496" type="line"/>
      <point x="985.792" y="1340.0" type="line"/>
      <point x="439.272" y="1340.0" type="line"/>
      <point x="439.272" y="1229.024" type="line"/>
      <point x="1040.416" y="1229.024" type="line"/>
      <point x="940.872" y="1263.76" type="line"/>
      <point x="1139.272" y="936.744" type="line"/>
      <point x="1189.696" y="950.984" type="line"/>
      <point x="1135.064" y="1406.496" type="line"/>
    </contour>
    <contour>
      <point x="931.824" y="582.0" type="line"/>
      <point x="106.632" y="582.0" type="line"/>
      <point x="106.632" y="480.672" type="line"/>
      <point x="931.824" y="480.672" type="line"/>
    </contour>
    <contour>
      <point x="931.824" y="865.328" type="line"/>
      <point x="106.632" y="865.328" type="line"/>
      <point x="106.632" y="764.0" type="line"/>
      <point x="931.824" y="764.0" type="line"/>
    </contour>
    <contour>
      <point x="129.096" y="1340.0" type="line"/>
      <point x="129.096" y="1298.464" type="line"/>
      <point x="301.816" y="1242.04" type="line"/>
      <point x="301.816" y="97.96000000000001" type="line"/>
      <point x="129.096" y="41.536" type="line"/>
      <point x="129.096" y="0.0" type="line"/>
      <point x="773.576" y="0.0" type="line"/>
      <point x="773.576" y="41.536" type="line"/>
      <point x="601.56" y="97.96000000000001" type="line"/>
      <point x="601.56" y="1340.0" type="line"/>
    </contour>
  </outline>
</glyph>
<glyph name="nine.lf" format="2">
  <advance width="1138.272"/>
  <outline>
    <contour>
      <point x="249.472" y="-47.0" type="line"/>
      <point x="885.5696096735733" y="148.786686755181"/>
      <point x="1061.472" y="453.56"/>
      <point x="1061.472" y="817.0" type="curve" smooth="yes"/>
      <point x="1061.472" y="1130.552"/>
      <point x="892.6800000000001" y="1366.48"/>
      <point x="549.544" y="1366.48" type="curve" smooth="yes"/>
      <point x="262.216" y="1366.48"/>
      <point x="45.263999999999996" y="1199.776"/>
      <point x="45.263999999999996" y="918.896" type="curve" smooth="yes"/>
      <point x="45.263999999999996" y="688.12"/>
      <point x="197.152" y="543.4"/>
      <point x="420.408" y="543.4" type="curve" smooth="yes"/>
      <point x="548.608" y="543.4"/>
      <point x="617.4" y="579.568"/>
      <point x="900.5840000000001" y="783.192" type="curve"/>
      <point x="825.44" y="796.712" type="line"/>
      <point x="736.568" y="729.152"/>
      <point x="627.952" y="708.888"/>
      <point x="539.096" y="708.888" type="curve" smooth="yes"/>
      <point x="416.072" y="708.888"/>
      <point x="337.36" y="789.056"/>
      <point x="337.36" y="994.424" type="curve" smooth="yes"/>
      <point x="337.36" y="1158.224"/>
      <point x="404.96000000000004" y="1257.488"/>
      <point x="536.784" y="1257.488" type="curve" smooth="yes"/>
      <point x="680.168" y="1257.488"/>
      <point x="757.432" y="1103.864"/>
      <point x="757.432" y="798.0" type="curve" smooth="yes"/>
      <point x="757.432" y="395.448"/>
      <point x="632.6546754683709" y="195.32776185242116"/>
      <point x="203.99200000000002" y="29.976" type="curve"/>
    </contour>
  </outline>
</glyph>
<glyph name="six.lf" format="2">
  <advance width="1145.272"/>
  <outline>
    <contour>
      <point x="945.624" y="1387.0" type="line"/>
      <point x="261.336" y="1207.424"/>
      <point x="76.50399999999999" y="897.0"/>
      <point x="76.50399999999999" y="523.0" type="curve" smooth="yes"/>
      <point x="76.50399999999999" y="209.448"/>
      <point x="249.872" y="-26.48"/>
      <point x="590.896" y="-26.48" type="curve" smooth="yes"/>
      <point x="876.112" y="-26.48"/>
      <point x="1093.064" y="147.61599999999999"/>
      <point x="1093.064" y="429.904" type="curve" smooth="yes"/>
      <point x="1093.064" y="664.552"/>
      <point x="940.12" y="805.048"/>
      <point x="720.736" y="805.048" type="curve" smooth="yes"/>
      <point x="584.088" y="805.048"/>
      <point x="519.168" y="765.712"/>
      <point x="237.392" y="562.792" type="curve"/>
      <point x="311.48" y="549.272" type="line"/>
      <point x="398.944" y="616.128"/>
      <point x="507.912" y="640.968"/>
      <point x="602.048" y="640.968" type="curve" smooth="yes"/>
      <point x="733.52" y="640.968"/>
      <point x="802.024" y="552.352"/>
      <point x="802.024" y="358.52" type="curve" smooth="yes"/>
      <point x="802.024" y="181.424"/>
      <point x="734.424" y="83.92"/>
      <point x="600.488" y="83.92" type="curve" smooth="yes"/>
      <point x="456.048" y="83.92"/>
      <point x="380.544" y="236.93809836065574"/>
      <point x="380.544" y="542.0" type="curve" smooth="yes"/>
      <point x="380.544" y="955.112"/>
      <point x="523.4639999999999" y="1160.6"/>
      <point x="991.104" y="1310.024" type="curve"/>
    </contour>
  </outline>
</glyph>
<glyph name="uni0302_hookabovecomb.case" format="2">
  <anchor x="0.0" y="1340.0" name="_UCtop"/>
  <outline>
    <contour>
      <point x="24.312" y="1600.168" type="line"/>
      <point x="-24.312" y="1600.168" type="line"/>
      <point x="195.448" y="1476.0" type="line"/>
      <point x="322.288" y="1476.0" type="line"/>
      <point x="112.28800000000001" y="1716.0" type="line"/>
      <point x="-112.28800000000001" y="1716.0" type="line"/>
      <point x="-322.288" y="1476.0" type="line"/>
      <point x="-195.448" y="1476.0" type="line"/>
    </contour>
    <contour>
      <point x="271.992" y="1681.368" type="curve"/>
      <point x="277.4" y="1620.648" type="line"/>
      <point x="490.096" y="1644.592"/>
      <point x="534.744" y="1700.592"/>
      <point x="534.744" y="1782.48" type="curve" smooth="yes"/>
      <point x="534.744" y="1853.944"/>
      <point x="486.0" y="1919.48"/>
      <point x="226.752" y="1931.944" type="curve"/>
      <point x="199.512" y="1803.168" type="line"/>
      <point x="365.76800000000003" y="1794.056"/>
      <point x="386.4" y="1775.944"/>
      <point x="386.4" y="1743.24" type="curve" smooth="yes"/>
      <point x="386.4" y="1714.184"/>
      <point x="368.048" y="1696.72"/>
    </contour>
  </outline>
</glyph>
<glyph name="uni20BD.lf" format="2">
  <advance width="1289.704"/>
  <outline>
    <contour>
      <point x="1111.0720000000001" y="585.52" type="line"/>
      <point x="101.928" y="585.52" type="line"/>
      <point x="101.928" y="484.192" type="line"/>
      <point x="1111.0720000000001" y="484.192" type="line"/>
    </contour>
    <contour>
      <point x="863.056" y="767.52" type="line" smooth="yes"/>
      <point x="1127.648" y="767.52"/>
      <point x="1232.24" y="890.504"/>
      <point x="1232.24" y="1064.408" type="curve" smooth="yes"/>
      <point x="1232.24" y="1236.2"/>
      <point x="1133.944" y="1340.0"/>
      <point x="863.056" y="1340.0" type="curve" smooth="yes"/>
      <point x="431.76" y="1340.0" type="line"/>
      <point x="530.792" y="1229.024" type="line"/>
      <point x="742.472" y="1229.024" type="line" smooth="yes"/>
      <point x="878.528" y="1229.024"/>
      <point x="923.568" y="1173.392"/>
      <point x="923.568" y="1050.168" type="curve" smooth="yes"/>
      <point x="923.568" y="925.888"/>
      <point x="865.416" y="868.848"/>
      <point x="775.112" y="868.848" type="curve" smooth="yes"/>
      <point x="101.928" y="868.848" type="line"/>
      <point x="101.928" y="767.52" type="line"/>
    </contour>
    <contour>
      <point x="124.392" y="1340.0" type="line"/>
      <point x="124.392" y="1298.464" type="line"/>
      <point x="297.112" y="1242.04" type="line"/>
      <point x="297.112" y="97.96000000000001" type="line"/>
      <point x="124.392" y="41.536" type="line"/>
      <point x="124.392" y="0.0" type="line"/>
      <point x="768.8720000000001" y="0.0" type="line"/>
      <point x="768.8720000000001" y="41.536" type="line"/>
      <point x="596.856" y="97.96000000000001" type="line"/>
      <point x="596.856" y="1340.0" type="line"/>
    </contour>
  </outline>
</glyph>
